<svg height="384pt" viewBox="-16 0 384 384.00564" width="384pt" xmlns="http://www.w3.org/2000/svg"><path d="m284 307.925781c15.441406 0 28 13.441407 28 30 0 16.640625-12.558594 30.078125-28 30.078125s-28-13.4375-28-30.078125c0-16.558593 12.558594-30 28-30zm0 0" fill="#e0f7fa"/><path d="m140 307.925781c15.441406 0 28 13.441407 28 30 0 16.640625-12.558594 30.078125-28 30.078125s-28-13.4375-28-30.078125c0-16.558593 12.558594-30 28-30zm0 0" fill="#e0f7fa"/><path d="m336 84.726562-8 145.917969-240 25.761719-22-147.519531 78-7.042969zm0 0" fill="#4dd0e1"/><g fill="#012e52"><path d="m168 179.125v-17.199219c0-8.832031-7.167969-16-16-16s-16 7.167969-16 16v17.199219c0 8.832031 7.167969 16 16 16s16-7.160156 16-16zm0 0"/><path d="m224 179.125v-17.199219c0-8.832031-7.167969-16-16-16s-16 7.167969-16 16v17.199219c0 8.832031 7.167969 16 16 16s16-7.160156 16-16zm0 0"/><path d="m280 179.125v-17.199219c0-8.832031-7.167969-16-16-16s-16 7.167969-16 16v17.199219c0 8.832031 7.167969 16 16 16s16-7.160156 16-16zm0 0"/><path d="m242.800781 321.925781h-61.601562c-6.230469-17.488281-22.328125-30-41.199219-30-24.261719 0-44 20.640625-44 46 0 25.40625 19.738281 46.078125 44 46.078125 18.878906 0 34.976562-12.542968 41.207031-30.078125h61.585938c6.230469 17.535157 22.328125 30.078125 41.207031 30.078125 24.257812 0 44-20.671875 44-46.078125 0-25.359375-19.742188-46-44-46-18.871094 0-34.960938 12.511719-41.199219 30zm-102.800781 30.078125c-6.617188 0-12-6.316406-12-14.078125 0-7.71875 5.382812-14 12-14s12 6.28125 12 14c0 7.761719-5.382812 14.078125-12 14.078125zm156-14.078125c0 7.761719-5.382812 14.078125-12 14.078125s-12-6.316406-12-14.078125c0-7.71875 5.382812-14 12-14s12 6.28125 12 14zm0 0"/><path d="m343.976562 231.519531 8-145.921875c.246094-4.640625-1.511718-9.152344-4.855468-12.375-3.335938-3.226562-7.855469-4.863281-12.535156-4.433594l-192 17.121094c-8.800782.785156-15.304688 8.558594-14.511719 17.359375.789062 8.800781 8.519531 15.28125 17.359375 14.511719l173.589844-15.480469-6.246094 113.890625-211.207032 22.664063-29.738281-199.449219c-.679687-4.550781-3.289062-8.601562-7.160156-11.097656l-40-25.757813c-7.421875-4.785156-17.335937-2.6406248-22.121094 4.789063-4.78125 7.433594-2.6367185 17.335937 4.792969 22.121094l33.90625 21.832031 30.933594 207.472656c1.175781 7.910156 7.984375 13.640625 15.808594 13.640625.566406 0 1.144531-.023438 1.71875-.089844l240-25.757812c7.792968-.839844 13.832031-7.207032 14.265624-15.039063zm0 0"/></g></svg>